<svg width="230" height="58" viewBox="0 0 230 58" fill="none" xmlns="http://www.w3.org/2000/svg" role="img" aria-label="ODEEN logo">
  <rect width="230" height="58" fill="none"/>
  <circle cx="24" cy="29" r="16" stroke="#B69A63" stroke-width="2" fill="#FFF9F2"/>
  <path d="M24 18.5C18.8 18.5 14.5 22.8 14.5 29C14.5 35.2 18.8 39.5 24 39.5C29.2 39.5 33.5 35.2 33.5 29C33.5 22.8 29.2 18.5 24 18.5ZM24 21.5C27.6 21.5 30.5 24.4 30.5 29C30.5 33.6 27.6 36.5 24 36.5C20.4 36.5 17.5 33.6 17.5 29C17.5 24.4 20.4 21.5 24 21.5Z" fill="#385746"/>
  <path d="M24 22L24 36" stroke="#385746" stroke-width="2" stroke-linecap="round"/>
  <text x="50" y="32" fill="#252923" font-family="'DM Sans', 'Segoe UI', Arial, sans-serif" font-size="23" font-weight="700" letter-spacing="2.2">ODEEN</text>
  <text x="52" y="46" fill="#7A7D78" font-family="'DM Sans', 'Segoe UI', Arial, sans-serif" font-size="7" font-weight="600" letter-spacing="2.8">CLOTHING • ABUJA</text>
</svg>
